<svg width="25" height="24" viewBox="0 0 25 24" fill="none" xmlns="http://www.w3.org/2000/svg">
<path d="M8.25 4H17.25C17.87 4 18.42 4.02 18.91 4.09C21.54 4.38 22.25 5.62 22.25 9V15C22.25 18.38 21.54 19.62 18.91 19.91C18.42 19.98 17.87 20 17.25 20H8.25C7.63 20 7.08 19.98 6.59 19.91C3.96 19.62 3.25 18.38 3.25 15V9C3.25 5.62 3.96 4.38 6.59 4.09C7.08 4.02 7.63 4 8.25 4Z" stroke="#535862" stroke-width="1.5" stroke-linecap="round" stroke-linejoin="round"/>
<path d="M14.25 10H17.75" stroke="#535862" stroke-width="1.5" stroke-linecap="round" stroke-linejoin="round"/>
<path d="M7.75 15.5H7.77H17.75" stroke="#535862" stroke-width="1.5" stroke-linecap="round" stroke-linejoin="round"/>
<path d="M10.8441 10H10.8531" stroke="#414651" stroke-width="1.5" stroke-linecap="round" stroke-linejoin="round"/>
<path d="M7.84412 10H7.8531" stroke="#414651" stroke-width="1.5" stroke-linecap="round" stroke-linejoin="round"/>
</svg>
