<svg width="25" height="24" viewBox="0 0 25 24" fill="none" xmlns="http://www.w3.org/2000/svg">
<path d="M22.6642 11.664C21.8017 7.76491 20.5225 5.27772 18.4722 4.67163C18.0751 4.55579 17.6634 4.498 17.2497 4.50007C15.9892 4.50007 14.9946 5.25007 12.7497 5.25007C10.5049 5.25007 9.50831 4.50007 8.24972 4.50007C7.81881 4.49778 7.38969 4.55552 6.97472 4.67163C4.92159 5.27772 3.65316 7.76725 2.78081 11.664C1.89019 15.6441 2.05144 18.789 3.79237 19.3927C5.01112 19.8146 6.10097 18.9423 7.13316 17.6583C8.30503 16.1958 9.74831 15.7458 12.7497 15.7458C15.7511 15.7458 17.1382 16.1958 18.3119 17.6583C19.3432 18.9432 20.4733 19.8048 21.6597 19.4002C23.5825 18.7435 23.5553 15.691 22.6642 11.664Z" stroke="#535862" stroke-width="1.5" stroke-miterlimit="10"/>
<path d="M14.4375 11.4375C14.9553 11.4375 15.375 11.0178 15.375 10.5C15.375 9.98223 14.9553 9.5625 14.4375 9.5625C13.9197 9.5625 13.5 9.98223 13.5 10.5C13.5 11.0178 13.9197 11.4375 14.4375 11.4375Z" fill="#535862"/>
<path d="M16.5 13.5C16.3145 13.5 16.1331 13.445 15.9789 13.3418C15.8247 13.2387 15.7045 13.0922 15.6336 12.9207C15.5628 12.7493 15.5443 12.5607 15.5807 12.3787C15.6171 12.1968 15.7066 12.0298 15.8379 11.8988C15.9693 11.7677 16.1365 11.6786 16.3185 11.6427C16.5006 11.6068 16.6891 11.6257 16.8604 11.697C17.0317 11.7684 17.1779 11.8889 17.2806 12.0434C17.3834 12.1978 17.438 12.3793 17.4375 12.5648C17.4369 12.8131 17.3378 13.0509 17.1621 13.2262C16.9863 13.4016 16.7482 13.5 16.5 13.5Z" fill="#535862"/>
<path d="M16.5 9.375C17.0178 9.375 17.4375 8.95527 17.4375 8.4375C17.4375 7.91973 17.0178 7.5 16.5 7.5C15.9822 7.5 15.5625 7.91973 15.5625 8.4375C15.5625 8.95527 15.9822 9.375 16.5 9.375Z" fill="#535862"/>
<path d="M18.5625 11.4375C19.0803 11.4375 19.5 11.0178 19.5 10.5C19.5 9.98223 19.0803 9.5625 18.5625 9.5625C18.0447 9.5625 17.625 9.98223 17.625 10.5C17.625 11.0178 18.0447 11.4375 18.5625 11.4375Z" fill="#535862"/>
<path d="M8.25 8.25V12.75M10.5 10.5H6" stroke="#535862" stroke-width="1.5" stroke-linecap="round" stroke-linejoin="round"/>
</svg>
