<svg width="25" height="24" viewBox="0 0 25 24" fill="none" xmlns="http://www.w3.org/2000/svg">
<path d="M23.3971 11.5022C22.4028 7.0074 20.9066 4.60834 18.6871 3.95302C18.2205 3.81615 17.7365 3.74778 17.2503 3.75005C16.6077 3.75005 16.048 3.90662 15.456 4.07255C14.7425 4.27271 13.9321 4.50005 12.7503 4.50005C11.5686 4.50005 10.7577 4.27318 10.0428 4.07302C9.45034 3.90662 8.89112 3.75005 8.25034 3.75005C7.74757 3.74829 7.247 3.81644 6.763 3.95255C4.55518 4.60505 3.05987 7.00318 2.05112 11.4994C0.966434 16.3379 1.50034 19.3927 3.54831 20.1015C3.82903 20.2004 4.1244 20.2515 4.42206 20.2524C5.82503 20.2524 6.95003 19.0838 7.71878 18.1271C8.58737 17.0443 9.60409 16.4949 12.7503 16.4949C15.5605 16.4949 16.7235 16.876 17.728 18.1271C18.3594 18.9136 18.9561 19.464 19.5514 19.8104C20.3432 20.2707 21.1344 20.3729 21.9027 20.109C23.113 19.696 23.8067 18.6043 23.9652 16.8633C24.0857 15.5283 23.9 13.7747 23.3971 11.5022ZM10.5003 11.2501H9.00034V12.7501C9.00034 12.949 8.92132 13.1397 8.78067 13.2804C8.64002 13.421 8.44925 13.5001 8.25034 13.5001C8.05143 13.5001 7.86066 13.421 7.72001 13.2804C7.57936 13.1397 7.50034 12.949 7.50034 12.7501V11.2501H6.00034C5.80143 11.2501 5.61066 11.171 5.47001 11.0304C5.32936 10.8897 5.25034 10.699 5.25034 10.5001C5.25034 10.3011 5.32936 10.1104 5.47001 9.96973C5.61066 9.82907 5.80143 9.75006 6.00034 9.75006H7.50034V8.25005C7.50034 8.05114 7.57936 7.86038 7.72001 7.71972C7.86066 7.57907 8.05143 7.50005 8.25034 7.50005C8.44925 7.50005 8.64002 7.57907 8.78067 7.71972C8.92132 7.86038 9.00034 8.05114 9.00034 8.25005V9.75006H10.5003C10.6993 9.75006 10.89 9.82907 11.0307 9.96973C11.1713 10.1104 11.2503 10.3011 11.2503 10.5001C11.2503 10.699 11.1713 10.8897 11.0307 11.0304C10.89 11.171 10.6993 11.2501 10.5003 11.2501ZM14.4378 11.4376C14.2524 11.4376 14.0712 11.3826 13.917 11.2796C13.7628 11.1765 13.6427 11.0301 13.5717 10.8588C13.5007 10.6875 13.4822 10.499 13.5184 10.3172C13.5545 10.1353 13.6438 9.96825 13.7749 9.83714C13.906 9.70603 14.0731 9.61674 14.2549 9.58057C14.4368 9.54439 14.6253 9.56296 14.7966 9.63392C14.9679 9.70487 15.1143 9.82504 15.2173 9.97921C15.3204 10.1334 15.3753 10.3146 15.3753 10.5001C15.3753 10.7487 15.2766 10.9872 15.1008 11.163C14.9249 11.3388 14.6865 11.4376 14.4378 11.4376ZM16.5003 13.5001C16.3148 13.5001 16.1335 13.445 15.9793 13.3419C15.825 13.2388 15.7049 13.0922 15.634 12.9208C15.5631 12.7493 15.5447 12.5607 15.581 12.3788C15.6174 12.1969 15.7069 12.0298 15.8383 11.8988C15.9696 11.7678 16.1369 11.6787 16.3189 11.6428C16.5009 11.6069 16.6895 11.6258 16.8607 11.6971C17.032 11.7684 17.1783 11.8889 17.281 12.0434C17.3837 12.1979 17.4383 12.3794 17.4378 12.5649C17.4372 12.8131 17.3382 13.051 17.1624 13.2263C16.9867 13.4016 16.7486 13.5001 16.5003 13.5001ZM16.5003 9.37505C16.3149 9.37505 16.1337 9.32007 15.9795 9.21706C15.8253 9.11404 15.7052 8.96763 15.6342 8.79632C15.5632 8.62501 15.5447 8.43651 15.5809 8.25466C15.617 8.0728 15.7063 7.90575 15.8374 7.77464C15.9685 7.64353 16.1356 7.55424 16.3174 7.51807C16.4993 7.48189 16.6878 7.50046 16.8591 7.57142C17.0304 7.64237 17.1768 7.76254 17.2798 7.91671C17.3829 8.07088 17.4378 8.25213 17.4378 8.43755C17.4378 8.6862 17.3391 8.92465 17.1633 9.10047C16.9874 9.27628 16.749 9.37505 16.5003 9.37505ZM18.5628 11.4376C18.3774 11.4376 18.1962 11.3826 18.042 11.2796C17.8878 11.1765 17.7677 11.0301 17.6967 10.8588C17.6257 10.6875 17.6072 10.499 17.6434 10.3172C17.6795 10.1353 17.7688 9.96825 17.8999 9.83714C18.031 9.70603 18.1981 9.61674 18.3799 9.58057C18.5618 9.54439 18.7503 9.56296 18.9216 9.63392C19.0929 9.70487 19.2393 9.82504 19.3423 9.97921C19.4454 10.1334 19.5003 10.3146 19.5003 10.5001C19.5003 10.7487 19.4016 10.9872 19.2258 11.163C19.0499 11.3388 18.8115 11.4376 18.5628 11.4376Z" fill="#0A0D12"/>
</svg>
