<svg width="24" height="24" viewBox="0 0 24 24" fill="none" xmlns="http://www.w3.org/2000/svg">
<path d="M12 2.75C14.2058 2.75 16 4.54421 16 6.75C15.9901 8.91794 14.2979 10.6645 12.1436 10.7402H12.1426C12.0562 10.7316 11.9701 10.734 11.8896 10.7393C9.67629 10.655 8 8.90531 8 6.75C8 4.54421 9.79421 2.75 12 2.75Z" fill="#0A0D12" stroke="#0A0D12" stroke-width="1.5"/>
<path d="M12.0137 13.505C13.7368 13.505 15.4187 13.9427 16.665 14.7736C17.7002 15.4637 18.2164 16.3248 18.2832 17.1925L18.291 17.3663C18.2887 18.2927 17.7695 19.2202 16.6611 19.9679C15.41 20.8074 13.7247 21.2501 12.001 21.2501C10.2766 21.2501 8.5902 20.8071 7.33887 19.9669L7.33691 19.9659C6.22852 19.227 5.71094 18.2976 5.71094 17.38C5.71094 16.4623 6.22855 15.5237 7.34473 14.7755C8.60224 13.9431 10.2907 13.505 12.0137 13.505Z" fill="#0A0D12" stroke="#0A0D12" stroke-width="1.5"/>
</svg>
