<svg width="20" height="20" viewBox="0 0 20 20" fill="none" xmlns="http://www.w3.org/2000/svg">
<mask id="path-1-inside-1_3865_8682" fill="white">
<path d="M9.99922 18.9583C9.79922 18.9583 9.59923 18.9334 9.40756 18.875C5.08256 17.6834 1.94922 13.6417 1.94922 9.25833V5.59998C1.94922 4.66665 2.62422 3.65836 3.49089 3.30002L8.13256 1.4C9.3409 0.908333 10.6659 0.908333 11.8659 1.4L16.5076 3.30002C17.3742 3.65836 18.0492 4.66665 18.0492 5.59998V9.25833C18.0492 13.6333 14.9075 17.675 10.5909 18.875C10.3992 18.9334 10.1992 18.9583 9.99922 18.9583ZM9.99922 2.29167C9.52422 2.29167 9.05754 2.38335 8.60754 2.56669L3.9659 4.46666C3.5659 4.63333 3.19922 5.17499 3.19922 5.60832V9.26667C3.19922 13.0917 5.94922 16.625 9.74089 17.675C9.90756 17.725 10.0909 17.725 10.2576 17.675C14.0492 16.625 16.7992 13.0917 16.7992 9.26667V5.60832C16.7992 5.17499 16.4325 4.63333 16.0325 4.46666L11.3909 2.56669C10.9409 2.38335 10.4742 2.29167 9.99922 2.29167Z"/>
</mask>
<path d="M9.99922 18.9583C9.79922 18.9583 9.59923 18.9334 9.40756 18.875C5.08256 17.6834 1.94922 13.6417 1.94922 9.25833V5.59998C1.94922 4.66665 2.62422 3.65836 3.49089 3.30002L8.13256 1.4C9.3409 0.908333 10.6659 0.908333 11.8659 1.4L16.5076 3.30002C17.3742 3.65836 18.0492 4.66665 18.0492 5.59998V9.25833C18.0492 13.6333 14.9075 17.675 10.5909 18.875C10.3992 18.9334 10.1992 18.9583 9.99922 18.9583ZM9.99922 2.29167C9.52422 2.29167 9.05754 2.38335 8.60754 2.56669L3.9659 4.46666C3.5659 4.63333 3.19922 5.17499 3.19922 5.60832V9.26667C3.19922 13.0917 5.94922 16.625 9.74089 17.675C9.90756 17.725 10.0909 17.725 10.2576 17.675C14.0492 16.625 16.7992 13.0917 16.7992 9.26667V5.60832C16.7992 5.17499 16.4325 4.63333 16.0325 4.46666L11.3909 2.56669C10.9409 2.38335 10.4742 2.29167 9.99922 2.29167Z" fill="#252B37"/>
<path d="M9.40756 18.875L9.8443 17.44L9.82523 17.4342L9.80601 17.4289L9.40756 18.875ZM3.49089 3.30002L2.92264 1.91182L2.91776 1.91384L3.49089 3.30002ZM8.13256 1.4L7.56723 0.0106106L7.56432 0.011801L8.13256 1.4ZM11.8659 1.4L11.2972 2.78801L11.2976 2.7882L11.8659 1.4ZM16.5076 3.30002L17.0807 1.91383L17.0758 1.91183L16.5076 3.30002ZM10.5909 18.875L10.1891 17.4298L10.1716 17.4347L10.1541 17.44L10.5909 18.875ZM8.60754 2.56669L8.0416 1.17755L8.03931 1.17848L8.60754 2.56669ZM3.9659 4.46666L3.39765 3.07843L3.38897 3.08205L3.9659 4.46666ZM9.74089 17.675L10.1719 16.2383L10.1566 16.2337L10.1412 16.2294L9.74089 17.675ZM10.2576 17.675L9.85723 16.2294L9.84184 16.2337L9.82653 16.2383L10.2576 17.675ZM16.0325 4.46666L16.6095 3.08202L16.6008 3.07846L16.0325 4.46666ZM11.3909 2.56669L11.9591 1.17848L11.9568 1.17755L11.3909 2.56669ZM9.99922 18.9583V17.4583C9.92247 17.4583 9.87252 17.4486 9.8443 17.44L9.40756 18.875L8.97082 20.31C9.32593 20.4181 9.67597 20.4583 9.99922 20.4583V18.9583ZM9.40756 18.875L9.80601 17.4289C6.11069 16.4107 3.44922 12.9451 3.44922 9.25833H1.94922H0.449219C0.449219 14.3382 4.05444 18.956 9.00912 20.3211L9.40756 18.875ZM1.94922 9.25833H3.44922V5.59998H1.94922H0.449219V9.25833H1.94922ZM1.94922 5.59998H3.44922C3.44922 5.27602 3.75619 4.81349 4.06403 4.68621L3.49089 3.30002L2.91776 1.91384C1.49226 2.50322 0.449219 4.05728 0.449219 5.59998H1.94922ZM3.49089 3.30002L4.05914 4.68822L8.70081 2.7882L8.13256 1.4L7.56432 0.011801L2.92264 1.91183L3.49089 3.30002ZM8.13256 1.4L8.6979 2.78939C9.54503 2.44469 10.4629 2.44618 11.2972 2.78801L11.8659 1.4L12.4346 0.0119869C10.8689 -0.629509 9.13676 -0.628024 7.56723 0.0106136L8.13256 1.4ZM11.8659 1.4L11.2976 2.7882L15.9393 4.68822L16.5076 3.30002L17.0758 1.91183L12.4341 0.011801L11.8659 1.4ZM16.5076 3.30002L15.9344 4.68621C16.2423 4.81349 16.5492 5.27602 16.5492 5.59998H18.0492H19.5492C19.5492 4.05728 18.5062 2.50322 17.0807 1.91384L16.5076 3.30002ZM18.0492 5.59998H16.5492V9.25833H18.0492H19.5492V5.59998H18.0492ZM18.0492 9.25833H16.5492C16.5492 12.9343 13.8815 16.4034 10.1891 17.4298L10.5909 18.875L10.9926 20.3202C15.9336 18.9467 19.5492 14.3324 19.5492 9.25833H18.0492ZM10.5909 18.875L10.1541 17.44C10.1259 17.4486 10.076 17.4583 9.99922 17.4583V18.9583V20.4583C10.3225 20.4583 10.6725 20.4181 11.0276 20.31L10.5909 18.875ZM9.99922 2.29167V0.791673C9.32737 0.791673 8.66868 0.922069 8.0416 1.17755L8.60754 2.56669L9.17349 3.95583C9.4464 3.84464 9.72107 3.79167 9.99922 3.79167V2.29167ZM8.60754 2.56669L8.03931 1.17848L3.39766 3.07846L3.9659 4.46666L4.53413 5.85486L9.17578 3.95489L8.60754 2.56669ZM3.9659 4.46666L3.38897 3.08205C2.84118 3.31029 2.4406 3.72501 2.1883 4.09975C1.93656 4.47365 1.69922 5.00577 1.69922 5.60832H3.19922H4.69922C4.69922 5.70562 4.68003 5.76196 4.67617 5.77284C4.67123 5.78674 4.67018 5.7851 4.67682 5.77523C4.68342 5.76543 4.68608 5.76466 4.67688 5.77288C4.67009 5.77895 4.62838 5.81562 4.54282 5.85128L3.9659 4.46666ZM3.19922 5.60832H1.69922V9.26667H3.19922H4.69922V5.60832H3.19922ZM3.19922 9.26667H1.69922C1.69922 13.7932 4.92573 17.898 9.34057 19.1206L9.74089 17.675L10.1412 16.2294C6.97272 15.352 4.69922 12.3902 4.69922 9.26667H3.19922ZM9.74089 17.675L9.30987 19.1118C9.75769 19.2461 10.2408 19.2461 10.6886 19.1118L10.2576 17.675L9.82653 16.2383C9.94102 16.2039 10.0574 16.2039 10.1719 16.2383L9.74089 17.675ZM10.2576 17.675L10.6579 19.1206C15.0727 17.898 18.2992 13.7932 18.2992 9.26667H16.7992H15.2992C15.2992 12.3902 13.0257 15.352 9.85723 16.2294L10.2576 17.675ZM16.7992 9.26667H18.2992V5.60832H16.7992H15.2992V9.26667H16.7992ZM16.7992 5.60832H18.2992C18.2992 5.00577 18.0619 4.47365 17.8101 4.09975C17.5578 3.72501 17.1573 3.31029 16.6095 3.08205L16.0325 4.46666L15.4556 5.85128C15.3701 5.81562 15.3284 5.77895 15.3216 5.77288C15.3124 5.76466 15.315 5.76543 15.3216 5.77523C15.3283 5.7851 15.3272 5.78674 15.3223 5.77284C15.3184 5.76196 15.2992 5.70562 15.2992 5.60832H16.7992ZM16.0325 4.46666L16.6008 3.07846L11.9591 1.17848L11.3909 2.56669L10.8227 3.95489L15.4643 5.85486L16.0325 4.46666ZM11.3909 2.56669L11.9568 1.17755C11.3298 0.922069 10.6711 0.791673 9.99922 0.791673V2.29167V3.79167C10.2774 3.79167 10.552 3.84464 10.825 3.95583L11.3909 2.56669Z" fill="#252B37" mask="url(#path-1-inside-1_3865_8682)"/>
</svg>
